<?xml version="1.0" encoding="UTF-8"?>
<svg xmlns="http://www.w3.org/2000/svg" width="1200" height="760" viewBox="0 0 1200 760">
<rect width="100%" height="100%" fill="#ffffff" />
<text x="600.0" y="44.0" font-size="28" font-weight="700" text-anchor="middle" fill="#222222">Fruits-262 Model Comparison</text>
<text x="600.0" y="74.0" font-size="15" font-weight="400" text-anchor="middle" fill="#555555">Accuracy, training time, and parameter count from output/model_comparison.csv</text>
<text x="60.0" y="125.0" font-size="18" font-weight="700" text-anchor="start" fill="#222222">Test Accuracy (%)</text>
<line x1="118.0" y1="376.0" x2="1122.0" y2="376.0" stroke="#dddddd" stroke-width="1" />
<text x="106.0" y="381.0" font-size="13" font-weight="400" text-anchor="end" fill="#555555">0</text>
<line x1="118.0" y1="331.8" x2="1122.0" y2="331.8" stroke="#dddddd" stroke-width="1" />
<text x="106.0" y="336.8" font-size="13" font-weight="400" text-anchor="end" fill="#555555">20</text>
<line x1="118.0" y1="287.6" x2="1122.0" y2="287.6" stroke="#dddddd" stroke-width="1" />
<text x="106.0" y="292.6" font-size="13" font-weight="400" text-anchor="end" fill="#555555">40</text>
<line x1="118.0" y1="243.4" x2="1122.0" y2="243.4" stroke="#dddddd" stroke-width="1" />
<text x="106.0" y="248.4" font-size="13" font-weight="400" text-anchor="end" fill="#555555">60</text>
<line x1="118.0" y1="199.2" x2="1122.0" y2="199.2" stroke="#dddddd" stroke-width="1" />
<text x="106.0" y="204.2" font-size="13" font-weight="400" text-anchor="end" fill="#555555">80</text>
<line x1="118.0" y1="155.0" x2="1122.0" y2="155.0" stroke="#dddddd" stroke-width="1" />
<text x="106.0" y="160.0" font-size="13" font-weight="400" text-anchor="end" fill="#555555">100</text>
<line x1="118.0" y1="376.0" x2="1122.0" y2="376.0" stroke="#333333" stroke-width="1.5" />
<line x1="118.0" y1="155.0" x2="118.0" y2="376.0" stroke="#333333" stroke-width="1.5" />
<rect x="190.5" y="239.5" width="55.8" height="136.5" fill="#1f77b4" rx="3" />
<text x="218.4" y="231.5" font-size="12" font-weight="400" text-anchor="middle" fill="#222222">61.8</text>
<rect x="257.4" y="194.1" width="55.8" height="181.9" fill="#2ca02c" rx="3" />
<text x="285.3" y="186.1" font-size="12" font-weight="400" text-anchor="middle" fill="#222222">82.3</text>
<rect x="324.4" y="181.4" width="55.8" height="194.6" fill="#ff7f0e" rx="3" />
<text x="352.3" y="173.4" font-size="12" font-weight="400" text-anchor="middle" fill="#222222">88.1</text>
<text x="285.3" y="404.0" font-size="14" font-weight="700" text-anchor="middle" fill="#222222">alexnet</text>
<text x="285.3" y="423.0" font-size="12" font-weight="400" text-anchor="middle" fill="#666666">52x64</text>
<rect x="525.2" y="216.0" width="55.8" height="160.0" fill="#1f77b4" rx="3" />
<text x="553.1" y="208.0" font-size="12" font-weight="400" text-anchor="middle" fill="#222222">72.4</text>
<rect x="592.1" y="178.2" width="55.8" height="197.8" fill="#2ca02c" rx="3" />
<text x="620.0" y="170.2" font-size="12" font-weight="400" text-anchor="middle" fill="#222222">89.5</text>
<rect x="659.0" y="170.2" width="55.8" height="205.8" fill="#ff7f0e" rx="3" />
<text x="686.9" y="162.2" font-size="12" font-weight="400" text-anchor="middle" fill="#222222">93.1</text>
<text x="620.0" y="404.0" font-size="14" font-weight="700" text-anchor="middle" fill="#222222">alexnet_bn</text>
<text x="620.0" y="423.0" font-size="12" font-weight="400" text-anchor="middle" fill="#666666">52x64</text>
<rect x="859.8" y="189.0" width="55.8" height="187.0" fill="#1f77b4" rx="3" />
<text x="887.7" y="181.0" font-size="12" font-weight="400" text-anchor="middle" fill="#222222">84.6</text>
<rect x="926.8" y="163.0" width="55.8" height="213.0" fill="#2ca02c" rx="3" />
<text x="954.7" y="155.0" font-size="12" font-weight="400" text-anchor="middle" fill="#222222">96.4</text>
<rect x="993.7" y="160.1" width="55.8" height="215.9" fill="#ff7f0e" rx="3" />
<text x="1021.6" y="152.1" font-size="12" font-weight="400" text-anchor="middle" fill="#222222">97.7</text>
<text x="954.7" y="404.0" font-size="14" font-weight="700" text-anchor="middle" fill="#222222">resnet50</text>
<text x="954.7" y="423.0" font-size="12" font-weight="400" text-anchor="middle" fill="#666666">224x224</text>
<rect x="872.0" y="117.0" width="14" height="14" fill="#1f77b4" rx="2" />
<text x="892.0" y="129.0" font-size="13" font-weight="400" text-anchor="start" fill="#444444">Top-1</text>
<rect x="960.0" y="117.0" width="14" height="14" fill="#2ca02c" rx="2" />
<text x="980.0" y="129.0" font-size="13" font-weight="400" text-anchor="start" fill="#444444">Top-5</text>
<rect x="1048.0" y="117.0" width="14" height="14" fill="#ff7f0e" rx="2" />
<text x="1068.0" y="129.0" font-size="13" font-weight="400" text-anchor="start" fill="#444444">Top-10</text>
<text x="60.0" y="505.0" font-size="18" font-weight="700" text-anchor="start" fill="#222222">Training Time (hours)</text>
<line x1="118.0" y1="638.0" x2="1122.0" y2="638.0" stroke="#dddddd" stroke-width="1" />
<text x="106.0" y="643.0" font-size="13" font-weight="400" text-anchor="end" fill="#555555">0</text>
<line x1="118.0" y1="612.5" x2="1122.0" y2="612.5" stroke="#dddddd" stroke-width="1" />
<text x="106.0" y="617.5" font-size="13" font-weight="400" text-anchor="end" fill="#555555">1</text>
<line x1="118.0" y1="587.0" x2="1122.0" y2="587.0" stroke="#dddddd" stroke-width="1" />
<text x="106.0" y="592.0" font-size="13" font-weight="400" text-anchor="end" fill="#555555">2</text>
<line x1="118.0" y1="561.5" x2="1122.0" y2="561.5" stroke="#dddddd" stroke-width="1" />
<text x="106.0" y="566.5" font-size="13" font-weight="400" text-anchor="end" fill="#555555">3</text>
<line x1="118.0" y1="536.0" x2="1122.0" y2="536.0" stroke="#dddddd" stroke-width="1" />
<text x="106.0" y="541.0" font-size="13" font-weight="400" text-anchor="end" fill="#555555">4</text>
<line x1="118.0" y1="638.0" x2="1122.0" y2="638.0" stroke="#333333" stroke-width="1.5" />
<line x1="118.0" y1="536.0" x2="118.0" y2="638.0" stroke="#333333" stroke-width="1.5" />
<rect x="238.3" y="605.8" width="94.0" height="32.2" fill="#7f3c8d" rx="3" />
<text x="285.3" y="597.8" font-size="13" font-weight="700" text-anchor="middle" fill="#222222">1.26h</text>
<text x="285.3" y="666.0" font-size="14" font-weight="700" text-anchor="middle" fill="#222222">alexnet</text>
<rect x="573.0" y="611.4" width="94.0" height="26.6" fill="#7f3c8d" rx="3" />
<text x="620.0" y="603.4" font-size="13" font-weight="700" text-anchor="middle" fill="#222222">1.04h</text>
<text x="620.0" y="666.0" font-size="14" font-weight="700" text-anchor="middle" fill="#222222">alexnet_bn</text>
<rect x="907.7" y="552.3" width="94.0" height="85.7" fill="#7f3c8d" rx="3" />
<text x="954.7" y="544.3" font-size="13" font-weight="700" text-anchor="middle" fill="#222222">3.36h</text>
<text x="954.7" y="666.0" font-size="14" font-weight="700" text-anchor="middle" fill="#222222">resnet50</text>
<text x="60.0" y="726.0" font-size="16" font-weight="700" text-anchor="start" fill="#222222">Parameter Count</text>
<text x="210.0" y="726.0" font-size="13" font-weight="400" text-anchor="start" fill="#444444">alexnet: 7.0M params, 200 epochs, batch 256</text>
<text x="515.0" y="726.0" font-size="13" font-weight="400" text-anchor="start" fill="#444444">alexnet_bn: 6.2M params, 150 epochs, batch 256</text>
<text x="820.0" y="726.0" font-size="13" font-weight="400" text-anchor="start" fill="#444444">resnet50: 24.7M params, 50 epochs, batch 64</text>
</svg>
